<svg width="20" height="20" viewBox="0 0 20 20" fill="none" xmlns="http://www.w3.org/2000/svg">
<path d="M19.6049 10.2292C19.6049 9.54944 19.5498 8.86601 19.4322 8.19727H10V12.048H15.4014C15.1772 13.29 14.457 14.3886 13.4025 15.0868V17.5853H16.6249C18.5173 15.8437 19.6049 13.2716 19.6049 10.2292Z" fill="#4285F4"/>
<path d="M9.9996 19.9997C12.6966 19.9997 14.9711 19.1142 16.6282 17.5856L13.4058 15.087C12.5092 15.697 11.3518 16.0424 10.0033 16.0424C7.39446 16.0424 5.18247 14.2823 4.3888 11.916H1.06348V14.4918C2.76105 17.8685 6.21865 19.9997 9.9996 19.9997Z" fill="#34A853"/>
<path d="M4.38539 11.9162C3.96651 10.6742 3.96651 9.32941 4.38539 8.08747V5.51172H1.06374C-0.354579 8.33733 -0.354579 11.6663 1.06374 14.4919L4.38539 11.9162Z" fill="#FBBC04"/>
<path d="M9.9996 3.95799C11.4253 3.93595 12.8032 4.47241 13.8357 5.45715L16.6907 2.60214C14.8829 0.904575 12.4835 -0.0287213 9.9996 0.000673879C6.21865 0.000673879 2.76105 2.13182 1.06348 5.51226L4.38513 8.08801C5.17512 5.71803 7.39078 3.95799 9.9996 3.95799Z" fill="#EA4335"/>
</svg>
